HIERARCHY
ROOT Hips
{
	OFFSET 0.000000 0.000000 0.000000
	CHANNELS 6 Xposition Yposition Zposition Xrotation Yrotation Zrotation
	JOINT LeftUpLeg_virtual
	{
		OFFSET 0.000000 0.000000 0.000000
		CHANNELS 3 Xrotation Yrotation Zrotation
		JOINT LeftUpLeg
		{
			OFFSET 13.026900 -6.336304 -1.092800
			CHANNELS 3 Xrotation Yrotation Zrotation
			JOINT LeftLeg
			{
				OFFSET 0.524474 -46.096886 9.782700
				CHANNELS 3 Xrotation Yrotation Zrotation
				JOINT LeftFoot
				{
					OFFSET -0.524474 -53.427422 -12.948200
					CHANNELS 3 Xrotation Yrotation Zrotation
					JOINT LeftToeBase
					{
						OFFSET 0.192200 -14.009700 16.364100
						CHANNELS 3 Xrotation Yrotation Zrotation
						JOINT LeftToe_End
						{
							OFFSET -1.784700 -0.561700 9.474800
							CHANNELS 3 Xrotation Yrotation Zrotation
							End Site
							{
								OFFSET 0 0 0
							}
						}
					}
				}
			}
		}
	}
	JOINT RightUpLeg_virtual
	{
		OFFSET 0.000000 0.000000 0.000000
		CHANNELS 3 Xrotation Yrotation Zrotation
		JOINT RightUpLeg
		{
			OFFSET -12.883000 -6.336304 -1.092800
			CHANNELS 3 Xrotation Yrotation Zrotation
			JOINT RightLeg
			{
				OFFSET -0.524587 -46.096825 9.782800
				CHANNELS 3 Xrotation Yrotation Zrotation
				JOINT RightFoot
				{
					OFFSET 0.524587 -53.427383 -12.948300
					CHANNELS 3 Xrotation Yrotation Zrotation
					JOINT RightToeBase
					{
						OFFSET -0.192200 -14.009700 16.364100
						CHANNELS 3 Xrotation Yrotation Zrotation
						JOINT RightToe_End
						{
							OFFSET 1.784700 -0.561700 9.474800
							CHANNELS 3 Xrotation Yrotation Zrotation
							End Site
							{
								OFFSET 0 0 0
							}
						}
					}
				}
			}
		}
	}
	JOINT Spine_virtual
	{
		OFFSET 0.000000 0.000000 0.000000
		CHANNELS 3 Xrotation Yrotation Zrotation
		JOINT Spine
		{
			OFFSET 0.072000 7.257294 -0.789700
			CHANNELS 3 Xrotation Yrotation Zrotation
			JOINT Spine1
			{
				OFFSET 0.000000 12.508769 -0.658067
				CHANNELS 3 Xrotation Yrotation Zrotation
				JOINT Spine1_split
				{
					OFFSET 0.000000 12.508769 -0.658067
					CHANNELS 3 Xrotation Yrotation Zrotation
					JOINT Spine2
					{
						OFFSET 0.000000 12.508769 -0.658067
						CHANNELS 3 Xrotation Yrotation Zrotation
						JOINT Neck_virtual
						{
							OFFSET 0.000000 0.000000 0.000000
							CHANNELS 3 Xrotation Yrotation Zrotation
							JOINT Neck
							{
								OFFSET 0.000000 14.033295 7.520400
								CHANNELS 3 Xrotation Yrotation Zrotation
								JOINT Head
								{
									OFFSET 0.000000 8.198502 5.703100
									CHANNELS 3 Xrotation Yrotation Zrotation
									JOINT HeadTop_End
									{
										OFFSET 0.000000 17.760803 13.332701
										CHANNELS 3 Xrotation Yrotation Zrotation
										End Site
										{
											OFFSET 0 0 0
										}
									}
								}
							}
						}
						JOINT LeftShoulder_virtual
						{
							OFFSET 0.000000 0.000000 0.000000
							CHANNELS 3 Xrotation Yrotation Zrotation
							JOINT LeftShoulder
							{
								OFFSET 6.292450 5.785301 -0.669000
								CHANNELS 3 Xrotation Yrotation Zrotation
								JOINT LeftShoulder_split
								{
									OFFSET 6.292450 5.785301 -0.669000
									CHANNELS 3 Xrotation Yrotation Zrotation
									JOINT LeftArm
									{
										OFFSET 13.907140 -6.093903 1.965100
										CHANNELS 3 Xrotation Yrotation Zrotation
										JOINT LeftForeArm
										{
											OFFSET 34.140198 0.000000 0.000000
											CHANNELS 3 Xrotation Yrotation Zrotation
											JOINT LeftHand
											{
												OFFSET 40.960209 0.000000 0.000000
												CHANNELS 3 Xrotation Yrotation Zrotation
												End Site
												{
													OFFSET 0 0 0
												}
											}
										}
									}
								}
							}
						}
						JOINT RightShoulder_virtual
						{
							OFFSET 0.000000 0.000000 0.000000
							CHANNELS 3 Xrotation Yrotation Zrotation
							JOINT RightShoulder
							{
								OFFSET -6.292450 5.785301 -0.669000
								CHANNELS 3 Xrotation Yrotation Zrotation
								JOINT RightShoulder_split
								{
									OFFSET -6.292450 5.785301 -0.669000
									CHANNELS 3 Xrotation Yrotation Zrotation
									JOINT RightArm
									{
										OFFSET -13.907140 -6.093903 1.965100
										CHANNELS 3 Xrotation Yrotation Zrotation
										JOINT RightForeArm
										{
											OFFSET -34.140198 0.000000 0.000000
											CHANNELS 3 Xrotation Yrotation Zrotation
											JOINT RightHand
											{
												OFFSET -40.960209 0.000000 0.000000
												CHANNELS 3 Xrotation Yrotation Zrotation
												End Site
												{
													OFFSET 0 0 0
												}
											}
										}
									}
								}
							}
						}
					}
				}
			}
		}
	}
}
MOTION
Frames: 9
Frame Time: 0.03333333
0.042239 97.773643 -0.641373 0.000000 0.000000 0.000000 -14.106043 4.502988 -0.369441 -20.766997 -3.179209 14.890839 56.529251 -0.553841 0.265985 -21.126327 -1.339514 -12.587100 -0.000065 -0.000001 -0.000001 0.000000 0.000000 0.000000 -14.106043 4.502988 -0.369441 -16.919277 -8.830495 -16.722530 56.152167 0.213818 -0.369142 -23.940952 -3.841552 11.514596 -0.000104 0.000007 0.000001 0.000000 0.000000 0.000000 -14.106043 4.502988 -0.369441 20.016377 0.029049 0.842137 6.967311 -0.338752 0.679832 0.000000 0.000000 0.000000 0.000000 0.000000 0.000000 6.967508 -0.337003 0.677442 -12.249459 -1.248219 -0.496002 -16.116685 -1.754211 -0.002246 0.000000 0.000000 0.000000 6.967508 -0.337003 0.677442 3.082221 -9.945126 -6.811324 0.000000 0.000000 0.000000 -13.959244 -7.908235 -60.295257 69.634202 -63.509121 71.597048 0.000000 0.000000 0.000000 6.967508 -0.337003 0.677442 8.709554 -2.418517 18.823134 0.000000 0.000000 0.000000 -21.494479 12.934323 56.855540 76.344187 65.516991 -70.724614 0.000000 0.000000 0.000000 
0.104053 97.596184 -0.481342 0.000000 0.000000 0.000000 -14.124590 4.606029 -0.457490 -20.863327 -3.252043 15.004710 56.889335 -0.550228 0.268953 -21.387168 -1.452326 -12.599559 -0.000065 -0.000001 -0.000001 0.000000 0.000000 0.000000 -14.124590 4.606029 -0.457490 -16.874392 -8.901027 -16.727804 56.371805 0.216094 -0.370908 -24.155908 -3.858834 11.598663 -0.000104 0.000009 0.000001 0.000000 0.000000 0.000000 -14.124590 4.606029 -0.457490 20.011274 0.044531 0.908815 6.966028 -0.327721 0.719249 0.000000 0.000000 0.000000 0.000000 0.000000 0.000000 6.966380 -0.324709 0.716456 -12.555786 -1.289426 -0.611312 -15.824414 -1.789684 -0.122986 0.000000 0.000000 0.000000 6.966380 -0.324709 0.716456 2.764796 -10.227419 -8.150478 0.000000 0.000000 0.000000 -14.313655 -7.958069 -56.721866 68.594333 -63.723336 67.966359 0.000000 0.000000 0.000000 6.966380 -0.324709 0.716456 8.718468 -2.429203 18.921159 0.000000 0.000000 0.000000 -21.496055 12.656106 56.308301 77.004058 65.942553 -71.153106 0.000000 0.000000 0.000000 
0.194962 97.414413 -0.279968 0.000000 0.000000 0.000000 -14.170249 4.908568 -0.576888 -20.938674 -3.576432 15.035408 57.291838 -0.544385 0.272650 -21.670863 -1.501548 -12.607499 -0.000065 0.000000 -0.000001 0.000000 0.000000 0.000000 -14.170249 4.908568 -0.576888 -16.692475 -9.098095 -16.710017 56.547348 0.221772 -0.371326 -24.409196 -3.982040 11.708309 -0.000104 0.000009 0.000001 0.000000 0.000000 0.000000 -14.170249 4.908568 -0.576888 19.990154 0.077025 1.017964 6.937510 -0.293120 0.836672 0.000000 0.000000 0.000000 0.000000 0.000000 0.000000 6.937982 -0.289781 0.834064 -12.503191 -1.468268 -0.642171 -15.970659 -1.831689 -0.574226 0.000000 0.000000 0.000000 6.937982 -0.289781 0.834064 2.431004 -10.738113 -9.036975 0.000000 0.000000 0.000000 -14.974689 -8.818249 -52.449306 66.100071 -62.633723 61.042384 0.000000 0.000000 0.000000 6.937982 -0.289781 0.834064 8.767406 -2.495618 19.020521 0.000000 0.000000 0.000000 -21.838847 11.822600 55.109839 78.559046 66.918252 -72.239468 0.000000 0.000000 0.000000 
0.296662 97.367729 -0.013165 0.000000 0.000000 0.000000 -14.235292 5.612703 -0.793268 -20.904986 -4.312461 14.999855 57.533238 -0.532010 0.276852 -21.877495 -1.525318 -12.616706 -0.000065 -0.000001 -0.000001 0.000000 0.000000 0.000000 -14.235292 5.612703 -0.793268 -16.200024 -9.771865 -16.647046 56.398238 0.237716 -0.365597 -24.628798 -4.136637 11.806773 -0.000104 0.000009 0.000001 0.000000 0.000000 0.000000 -14.235292 5.612703 -0.793268 19.928732 0.085993 1.264197 6.839932 -0.351178 1.068726 0.000000 0.000000 0.000000 0.000000 0.000000 0.000000 6.840728 -0.346985 1.066124 -11.868276 -1.759280 -0.434148 -16.871868 -1.816975 -1.274528 0.000000 0.000000 0.000000 6.840728 -0.346985 1.066124 2.111462 -11.543113 -9.212454 0.000000 0.000000 0.000000 -15.811278 -10.260028 -48.386614 61.977020 -60.070653 50.772139 0.000000 0.000000 0.000000 6.840728 -0.346985 1.066124 8.956361 -2.757031 19.125561 0.000000 0.000000 0.000000 -23.419076 9.145780 51.563584 83.811387 69.708494 -76.139233 0.000000 0.000000 0.000000 
0.434436 97.621925 0.361462 0.000000 0.000000 0.000000 -14.240775 7.144471 -1.112004 -20.738080 -5.880031 14.688575 57.377673 -0.510938 0.280650 -21.867469 -1.447290 -12.600548 -0.000065 -0.000001 -0.000001 0.000000 0.000000 0.000000 -14.240775 7.144471 -1.112004 -15.195216 -11.371267 -16.569846 55.569880 0.271132 -0.347925 -24.740595 -4.368944 11.898937 -0.000104 0.000009 0.000001 0.000000 0.000000 0.000000 -14.240775 7.144471 -1.112004 19.832766 -0.014296 1.699046 6.679607 -0.664823 1.500897 0.000000 0.000000 0.000000 0.000000 0.000000 0.000000 6.680938 -0.660219 1.497984 -11.358412 -2.140448 -0.267526 -17.521144 -1.927238 -1.898977 0.000000 0.000000 0.000000 6.680938 -0.660219 1.497984 1.789840 -12.847866 -9.248318 0.000000 0.000000 0.000000 -16.587437 -11.925817 -44.313516 58.095943 -56.142362 39.239099 0.000000 0.000000 0.000000 6.680938 -0.660219 1.497984 9.320062 -3.255910 19.377699 0.000000 0.000000 0.000000 -26.545508 4.429799 44.221397 98.063656 74.446712 -87.427296 0.000000 0.000000 0.000000 
0.664365 98.251480 0.869720 0.000000 0.000000 0.000000 -14.051750 9.709431 -1.195499 -20.548284 -8.277873 13.658223 56.612296 -0.491859 0.280335 -21.518472 -1.270739 -12.474505 -0.000065 -0.000001 -0.000001 0.000000 0.000000 0.000000 -14.051750 9.709431 -1.195499 -13.769327 -13.900499 -16.788444 53.977199 0.310091 -0.320076 -24.724694 -4.786444 12.069506 -0.000104 0.000009 0.000001 0.000000 0.000000 0.000000 -14.051750 9.709431 -1.195499 19.733306 -0.343469 2.216594 6.504438 -1.431118 1.882393 0.000000 0.000000 0.000000 0.000000 0.000000 0.000000 6.507064 -1.425644 1.878501 -11.121217 -2.676902 0.656103 -18.078312 -1.819530 -2.833730 0.000000 0.000000 0.000000 6.507064 -1.425644 1.878501 1.588962 -13.978034 -8.328292 0.000000 0.000000 0.000000 -17.056996 -13.550105 -41.040271 56.173265 -51.841918 28.627800 0.000000 0.000000 0.000000 6.507064 -1.425644 1.878501 9.792471 -3.914209 19.480524 0.000000 0.000000 0.000000 -31.132689 -0.339097 35.023438 124.315590 78.102093 -109.822106 0.000000 0.000000 0.000000 
0.905016 99.255890 1.507629 0.000000 0.000000 0.000000 -13.563184 12.874310 -0.949661 -20.417167 -10.892521 12.139697 55.100410 -0.479877 0.273843 -20.815350 -1.219303 -12.281809 -0.000065 -0.000001 -0.000001 0.000000 0.000000 0.000000 -13.563184 12.874310 -0.949661 -12.231889 -17.008978 -17.260578 51.708128 0.343857 -0.285402 -24.535546 -5.289708 12.270243 -0.000104 0.000007 0.000001 0.000000 0.000000 0.000000 -13.563184 12.874310 -0.949661 19.563188 -0.759850 2.673610 6.178182 -2.345255 2.098796 0.000000 0.000000 0.000000 0.000000 0.000000 0.000000 6.182870 -2.338604 2.094053 -10.676284 -3.576427 1.858445 -18.623899 -1.977130 -3.788982 0.000000 0.000000 0.000000 6.182870 -2.338604 2.094053 1.404407 -15.136532 -7.787823 0.000000 0.000000 0.000000 -17.214672 -14.704919 -38.224481 55.783914 -48.087937 19.885725 0.000000 0.000000 0.000000 6.182870 -2.338604 2.094053 10.461297 -5.010223 18.057342 0.000000 0.000000 0.000000 -40.871039 -3.435843 27.351773 152.786728 78.755804 -135.527933 0.000000 0.000000 0.000000 
1.158117 100.606804 2.242390 0.000000 0.000000 0.000000 -12.712611 15.861719 -0.581252 -20.304143 -12.864607 10.720916 52.842742 -0.477363 0.260332 -19.856232 -1.520791 -12.022610 -0.000065 -0.000001 -0.000001 0.000000 0.000000 0.000000 -12.712611 15.861719 -0.581252 -10.879993 -20.205204 -17.776570 48.831112 0.364972 -0.246292 -24.038851 -5.580149 12.471078 -0.000104 0.000007 0.000001 0.000000 0.000000 0.000000 -12.712611 15.861719 -0.581252 19.346040 -1.072832 2.965728 5.743333 -3.020433 2.099366 0.000000 0.000000 0.000000 0.000000 0.000000 0.000000 5.750165 -3.012933 2.094081 -10.735760 -5.007601 3.086227 -18.524928 -2.634065 -4.823202 0.000000 0.000000 0.000000 5.750165 -3.012933 2.094081 1.157925 -16.207656 -8.247225 0.000000 0.000000 0.000000 -16.888987 -14.699112 -35.891729 56.496538 -45.151088 14.414136 0.000000 0.000000 0.000000 5.750165 -3.012933 2.094081 11.395061 -7.137735 13.109343 0.000000 0.000000 0.000000 -62.270384 -4.963868 26.779947 167.974678 77.950586 -151.569944 0.000000 0.000000 0.000000 
1.396422 102.165749 2.899277 0.000000 0.000000 0.000000 -11.477735 18.118578 -0.012129 -20.286652 -13.673357 9.436538 49.946680 -0.487322 0.239317 -18.632222 -2.148510 -11.681906 -0.000065 -0.000001 -0.000001 0.000000 0.000000 0.000000 -11.477735 18.118578 -0.012129 -10.221118 -22.916048 -18.538762 45.745796 0.353046 -0.212743 -23.220961 -5.528875 12.657041 -0.000104 0.000007 0.000001 0.000000 0.000000 0.000000 -11.477735 18.118578 -0.012129 19.125428 -1.153540 2.978416 5.286892 -3.190172 1.832914 0.000000 0.000000 0.000000 0.000000 0.000000 0.000000 5.295553 -3.181829 1.826789 -11.182891 -6.823911 4.005451 -18.726543 -3.799591 -5.590128 0.000000 0.000000 0.000000 5.295553 -3.181829 1.826789 0.876381 -16.787130 -9.254184 0.000000 0.000000 0.000000 -16.250593 -13.162080 -34.726932 56.412899 -43.541425 11.970882 0.000000 0.000000 0.000000 5.295553 -3.181829 1.826789 11.300136 -7.625741 9.313194 0.000000 0.000000 0.000000 -80.343652 -2.263662 29.506964 172.722835 80.093722 -156.909526 0.000000 0.000000 0.000000 
